PathFileType	4	(X/Y/Z)	../Python\walking\Walking18\task.trc
DataRate	CameraRate	NumFrames	NumMarkers	Units	OrigDataRate	OrigDataStartFrame	OrigNumFrames
200.000000	200.000000	4	30	mm	200.000000	109	439
Frame#	Time	RBAK			CLAV			STRN			RASI			LASI			PE01			RTH1			RTH2			RTH3			RTB3			RHEE			RD5M			RTOE			LTH2			LTH3			LTB2			LTB3			LHEE			LTOE			LD5M			LTB1			C7			RTB1			RTB2			LPSI			PE03			PE02			RPSI			LTH1			T10			
		X1	Y1	Z1	X2	Y2	Z2	X3	Y3	Z3	X4	Y4	Z4	X5	Y5	Z5	X6	Y6	Z6	X7	Y7	Z7	X8	Y8	Z8	X9	Y9	Z9	X10	Y10	Z10	X11	Y11	Z11	X12	Y12	Z12	X13	Y13	Z13	X14	Y14	Z14	X15	Y15	Z15	X16	Y16	Z16	X17	Y17	Z17	X18	Y18	Z18	X19	Y19	Z19	X20	Y20	Z20	X21	Y21	Z21	X22	Y22	Z22	X23	Y23	Z23	X24	Y24	Z24	X25	Y25	Z25	X26	Y26	Z26	X27	Y27	Z27	X28	Y28	Z28	X29	Y29	Z29	X30	Y30	Z30	

110	0.545	-1225.943969726563	1223.0966796875	248.8053741455079	-1047.684448242188	1231.17138671875	157.4371795654297	-985.1186523437505	1047.79296875	160.0575256347657	-1017.020141601563	858.401245117188	276.1715393066407	-1023.87548828125	832.3043823242192	51.91180419921878	-1217.656372070313	926.8110961914067	175.4926300048829	-997.4931030273442	574.5932617187502	310.6372680664064	-956.1120605468755	510.1180725097659	287.539276123047	-948.1388549804692	570.8060302734377	297.6300659179689	-924.602905273438	213.332244873047	248.8142547607423	-1013.8447265625	26.31878471374513	184.5657196044922	-859.665649414063	13.93464088439942	240.3320617675782	-826.8281250000005	29.23472404479982	182.672592163086	-1149.640869140625	516.5159912109377	27.21396446228029	-1073.5810546875	543.4826660156252	19.1517505645752	-1343.3876953125	280.9978332519532	53.01918029785159	-1295.788330078125	269.124481201172	50.45881271362308	-1488.685424804688	203.9517211914064	120.9588699340821	-1416.613891601563	41.2839813232422	126.6763381958008	-1445.54931640625	55.1034965515137	84.55030059814456	-1280.68994140625	327.2281799316407	36.28394699096681	-1172.40380859375	1324.412353515625	151.7373962402344	-912.9229125976567	290.8651428222657	258.4886474609376	-954.6718750000005	247.7503204345704	269.3381347656251	-1220.82958984375	887.376586914063	136.4598541259766	-1231.875610351563	863.136596679688	157.2992095947266	-1229.566284179688	869.2250366210942	207.551727294922	-1216.474243164063	894.6852416992192	226.2033081054689	-1119.277099609375	569.1842041015627	14.60751533508301	-1201.156860351563	1025.64306640625	159.4919738769532	
111	0.55	-1218.067016601563	1224.740112304688	249.2267303466798	-1040.4140625	1232.563110351563	156.7892150878907	-977.9062500000005	1049.106567382813	159.4333038330079	-1009.929748535157	859.6079711914067	276.3561096191407	-1017.310791015625	833.5147094726567	52.12081146240237	-1210.774047851563	928.2494506835942	175.9368743896485	-993.841430664063	574.692565917969	310.6922607421876	-953.265258789063	509.6541748046877	287.7486877441407	-944.4724731445317	570.2279052734377	297.9364013671876	-923.3992309570317	212.9541473388673	248.8592987060548	-1013.871643066407	26.33123016357423	184.468002319336	-859.6364746093755	14.06966590881348	240.2248382568361	-826.7846679687505	29.23768043518068	182.5885772705079	-1137.631103515625	516.3159790039065	26.8569850921631	-1062.273681640625	544.580993652344	18.59192466735841	-1328.805908203125	282.7712402343751	52.06013488769534	-1281.299682617188	270.5079040527345	49.86210250854495	-1475.427978515625	207.1246337890626	120.6168594360352	-1402.96533203125	43.93757629394533	123.7587051391602	-1432.066650390625	59.04914093017581	82.11774444580081	-1265.639404296875	328.3236389160157	35.27673339843751	-1165.017578125	1325.847778320313	151.616439819336	-911.132202148438	290.4234924316407	258.568572998047	-953.3340454101567	247.6462860107423	269.1793823242189	-1213.947509765625	888.7001342773442	137.0404510498047	-1224.967895507813	864.5468139648442	157.822494506836	-1222.623046875	870.6926879882817	208.0684509277345	-1209.399169921875	896.3533325195317	226.8121643066407	-1108.29833984375	569.5130615234377	14.28591442108155	-1193.9375	1027.159423828125	160.0641784667969	
112	0.555	-1210.219848632813	1226.415405273438	249.6482086181642	-1033.18505859375	1233.959838867188	156.1170349121094	-970.7612304687505	1050.414916992188	158.7808837890626	-1002.903076171875	860.7791137695317	276.5294494628907	-1010.824584960938	834.7738647460942	52.28007888793948	-1203.923461914063	929.7061157226567	176.4228820800782	-990.2768554687505	574.7926025390627	310.7052612304689	-950.469848632813	509.2374572753909	287.886932373047	-940.910278320313	569.679626464844	298.1783142089845	-922.205932617188	212.6036376953126	248.8486480712892	-1013.8994140625	26.34979248046876	184.3835906982422	-859.611450195313	14.19288539886475	240.113739013672	-826.7586059570317	29.2438316345215	182.4998626708985	-1125.643188476563	516.334411621094	26.59176063537599	-1051.074829101563	545.9024047851565	17.96970748901368	-1314.029052734375	284.5823059082032	51.19446945190433	-1266.5947265625	271.9647827148439	49.31075668334964	-1461.908203125	209.840057373047	120.3550567626954	-1388.265625	46.60131454467775	120.6331100463868	-1417.710815429688	62.87904739379886	79.50850677490237	-1250.46826171875	329.5563964843751	34.38431930541994	-1157.662475585938	1327.301879882813	151.4818420410157	-909.3890991210942	290.006805419922	258.5779113769532	-951.984008789063	247.5623016357423	269.0118713378907	-1207.138549804688	890.0615234375005	137.6527099609376	-1218.13671875	865.998413085938	158.3636779785157	-1215.740478515625	872.1770629882817	208.6052551269532	-1202.388427734375	898.0126953125005	227.4273681640626	-1097.359008789063	570.027038574219	13.98068141937257	-1186.770874023438	1028.699584960938	160.6534423828126	
113	0.5600000000000001	-1202.405639648438	1228.115600585938	250.0682830810548	-1025.998413085938	1235.35693359375	155.4233551025391	-963.682739257813	1051.71435546875	158.1033020019532	-995.9371948242192	861.9130249023442	276.692840576172	-1004.408935546875	836.0774536132817	52.39190292358401	-1197.099853515625	931.1767578125005	176.9462585449219	-986.7507324218755	574.907653808594	310.6791076660157	-947.6715698242192	508.8858337402346	287.9517517089845	-937.4062500000005	569.1815185546877	298.3462219238282	-921.0092163085942	212.2793426513673	248.7785034179689	-1013.925903320313	26.37616348266603	184.3134765625001	-859.5902709960942	14.30647945404053	240.0044097900392	-826.7440795898442	29.24853515625001	182.4079284667969	-1113.669921875	516.5686645507815	26.41506767272951	-1039.96875	547.4473876953127	17.28927421569825	-1299.084838867188	286.4214172363282	50.43484878540042	-1251.702392578125	273.4904174804689	48.79621124267581	-1448.130737304688	212.0823516845704	120.158187866211	-1372.618774414063	49.23040771484378	117.3521881103516	-1402.54443359375	66.54425811767581	76.75714874267581	-1235.210815429688	330.9302368164064	33.62243652343751	-1150.340087890625	1328.769165039063	151.3343048095704	-907.6766967773442	289.6150207519532	258.5130310058595	-950.6054687500005	247.4949645996095	268.8376464843751	-1200.3974609375	891.4559936523442	138.2917175292969	-1211.376220703125	867.4860229492192	158.918441772461	-1208.914306640625	873.6735839843755	209.1578216552736	-1195.438232421875	899.658325195313	228.0455322265626	-1086.454833984375	570.7270507812502	13.695143699646	-1179.6552734375	1030.257446289063	161.2568511962891	
